<svg xmlns="http://www.w3.org/2000/svg" xmlns:xlink="http://www.w3.org/1999/xlink" width="500" zoomAndPan="magnify" viewBox="0 0 375 374.999991" height="500" preserveAspectRatio="xMidYMid meet" version="1.0"><defs><clipPath id="2d4f2c8209"><path d="M 18.296875 207 L 356.546875 207 L 356.546875 305.730469 L 18.296875 305.730469 Z M 18.296875 207 " clip-rule="nonzero"/></clipPath><clipPath id="ff5c6e9fe8"><path d="M 55 69.480469 L 320 69.480469 L 320 257 L 55 257 Z M 55 69.480469 " clip-rule="nonzero"/></clipPath></defs><g clip-path="url(#2d4f2c8209)"><path fill="#1468a2" d="M 339.171875 281.109375 L 313.542969 281.109375 L 307.171875 272.125 L 293.242188 290.09375 L 255.082031 243.871094 L 255.082031 291.523438 L 187.453125 207.15625 L 119.820312 291.523438 L 119.820312 243.871094 L 81.664062 290.09375 L 67.734375 272.125 L 61.363281 281.109375 L 35.730469 281.109375 L 18.265625 305.460938 L 356.636719 305.460938 Z M 339.171875 281.109375 " fill-opacity="1" fill-rule="evenodd"/></g><g clip-path="url(#ff5c6e9fe8)"><path fill="#74dff6" d="M 187.453125 69.53125 L 55.054688 254.160156 L 69.808594 246.085938 L 79.957031 256.242188 L 119.027344 207.9375 L 139.480469 232.085938 L 187.453125 170.828125 L 235.457031 232.085938 L 255.875 207.9375 L 294.949219 256.242188 L 305.097656 246.085938 L 319.851562 254.160156 Z M 187.453125 69.53125 " fill-opacity="1" fill-rule="evenodd"/></g></svg>