<?xml version="1.0" encoding="UTF-8"?>
<svg version="1.1" xmlns="http://www.w3.org/2000/svg" width="195" height="104">
<path d="M0 0 C64.35 0 128.7 0 195 0 C195 34.32 195 68.64 195 104 C130.65 104 66.3 104 0 104 C0 69.68 0 35.36 0 0 Z " fill="#FDFEFE" transform="translate(0,0)"/>
<path d="M0 0 C7.29374756 -0.41753117 13.74595494 2.41075501 20.23828125 5.4921875 C21.02460937 5.74226562 21.8109375 5.99234375 22.62109375 6.25 C24.38570581 5.33501597 26.14718482 4.40464189 27.828125 3.34375 C34.60057118 -0.78758972 42.96954602 -0.6028539 50.62109375 0.25 C54.14913717 1.44504383 57.43508658 2.81622349 60.78125 4.44921875 C63.63533269 5.60099942 63.63533269 5.60099942 66.1328125 3.96875 C66.95394531 3.4015625 67.77507812 2.834375 68.62109375 2.25 C79.80394245 -0.6706602 89.21536576 -0.92618264 99.62109375 4.25 C102.87109375 6.1875 102.87109375 6.1875 105.62109375 8.25 C107.16796875 9.3946875 107.16796875 9.3946875 108.74609375 10.5625 C113.53394034 15.03809573 115.79284134 18.89204619 116.15234375 25.39453125 C116.16287656 27.28385352 116.15199925 29.17340116 116.12109375 31.0625 C116.14429688 32.46338867 116.14429688 32.46338867 116.16796875 33.89257812 C116.11059636 44.22677985 112.78995979 51.86430502 105.71875 59.33203125 C102.61265613 62.17205376 99.01458961 65.25 94.62109375 65.25 C94.29109375 66.57 93.96109375 67.89 93.62109375 69.25 C90.32109375 68.59 87.02109375 67.93 83.62109375 67.25 C83.12609375 68.735 83.12609375 68.735 82.62109375 70.25 C81.63109375 70.25 80.64109375 70.25 79.62109375 70.25 C79.62109375 69.26 79.62109375 68.27 79.62109375 67.25 C78.01234375 67.62125 78.01234375 67.62125 76.37109375 68 C72.62109375 68.25 72.62109375 68.25 70.43359375 66.4375 C69.83546875 65.715625 69.23734375 64.99375 68.62109375 64.25 C66.48800183 63.01487921 66.48800183 63.01487921 64.62109375 62.25 C63.96109375 64.89 63.30109375 67.53 62.62109375 70.25 C60.64109375 69.755 60.64109375 69.755 58.62109375 69.25 C58.62109375 67.6 58.62109375 65.95 58.62109375 64.25 C57.18206329 64.87146808 55.74492582 65.49732059 54.30859375 66.125 C53.50808594 66.47304687 52.70757812 66.82109375 51.8828125 67.1796875 C49.42491035 68.27571894 49.42491035 68.27571894 46.62109375 70.25 C43.62109375 70.5625 43.62109375 70.5625 40.62109375 70.25 C39.59912383 69.27246356 38.6012975 68.2694119 37.62109375 67.25 C35.3112106 66.50613932 32.97793431 65.82809297 30.62109375 65.25 C30.22921875 65.745 29.83734375 66.24 29.43359375 66.75 C27.0701766 68.70593143 25.60674372 68.49207973 22.62109375 68.25 C21.16046525 65.60261084 20.62109375 64.35551666 20.62109375 61.25 C19.96109375 61.25 19.30109375 61.25 18.62109375 61.25 C18.47671875 62.36375 18.33234375 63.4775 18.18359375 64.625 C17.62109375 68.25 17.62109375 68.25 16.62109375 70.25 C14.97109375 69.92 13.32109375 69.59 11.62109375 69.25 C11.29109375 68.26 10.96109375 67.27 10.62109375 66.25 C8.18392117 66.52034634 8.18392117 66.52034634 5.62109375 67.25 C4.96109375 68.24 4.30109375 69.23 3.62109375 70.25 C2.30109375 69.92 0.98109375 69.59 -0.37890625 69.25 C-0.37890625 68.59 -0.37890625 67.93 -0.37890625 67.25 C-1.59578125 67.29125 -2.81265625 67.3325 -4.06640625 67.375 C-7.59784752 67.38754508 -10.17894191 66.84998217 -13.37890625 65.25 C-13.70890625 66.9 -14.03890625 68.55 -14.37890625 70.25 C-15.69890625 69.92 -17.01890625 69.59 -18.37890625 69.25 C-18.37890625 66.61 -18.37890625 63.97 -18.37890625 61.25 C-22.66890625 60.59 -26.95890625 59.93 -31.37890625 59.25 C-31.37890625 62.55 -31.37890625 65.85 -31.37890625 69.25 C-33.35890625 69.745 -33.35890625 69.745 -35.37890625 70.25 C-36.02486939 21.23630487 -36.02486939 21.23630487 -25.3828125 10.10546875 C-17.46468447 2.77386872 -10.54644772 1.10832948 0 0 Z " fill="#2CAAF1" transform="translate(77.37890625,0.75)"/>
<path d="M0 0 C1.546875 1.1446875 1.546875 1.1446875 3.125 2.3125 C7.91284659 6.78809573 10.17174759 10.64204619 10.53125 17.14453125 C10.54178281 19.03385352 10.5309055 20.92340116 10.5 22.8125 C10.51546875 23.74642578 10.5309375 24.68035156 10.546875 25.64257812 C10.48950261 35.97677985 7.16886604 43.61430502 0.09765625 51.08203125 C-3.00843762 53.92205376 -6.60650414 57 -11 57 C-11.495 58.98 -11.495 58.98 -12 61 C-15.3 60.34 -18.6 59.68 -22 59 C-22.33 59.99 -22.66 60.98 -23 62 C-23.99 62 -24.98 62 -26 62 C-26 61.01 -26 60.02 -26 59 C-27.60875 59.37125 -27.60875 59.37125 -29.25 59.75 C-33 60 -33 60 -35.1875 58.1875 C-35.785625 57.465625 -36.38375 56.74375 -37 56 C-39.13309192 54.76487921 -39.13309192 54.76487921 -41 54 C-41.66 56.64 -42.32 59.28 -43 62 C-43.99 62 -44.98 62 -46 62 C-46.30989007 57.88874113 -46.6128933 53.77703959 -46.90942383 49.66479492 C-47.01135447 48.26491492 -47.11519131 46.86517239 -47.22094727 45.46557617 C-47.37232338 43.4578883 -47.51635601 41.44965096 -47.66015625 39.44140625 C-47.74918213 38.23170166 -47.83820801 37.02199707 -47.92993164 35.77563477 C-47.9530542 34.85967529 -47.97617676 33.94371582 -48 33 C-46.46948354 31.46948354 -45.0675065 31.71999171 -42.9375 31.625 C-42.20402344 31.57601562 -41.47054687 31.52703125 -40.71484375 31.4765625 C-36.56668042 32.27635226 -33.44776691 34.63670182 -30 37 C-29.82343987 33.20893717 -29.71840323 29.41895045 -29.625 25.625 C-29.57472656 24.56410156 -29.52445313 23.50320312 -29.47265625 22.41015625 C-29.3275014 14.52340959 -30.95819233 9.15263759 -36 3 C-37.93235398 1.39682537 -39.81024381 0.25128925 -42 -1 C-42 -1.66 -42 -2.32 -42 -3 C-29.28668462 -12.21019381 -11.7232033 -8.79240247 0 0 Z " fill="#31A0E1" transform="translate(183,9)"/>
<path d="M0 0 C6.27564624 -0.35924987 12.04946126 1.4071513 17.62109375 4.25 C19.9453125 6.390625 19.9453125 6.390625 21.62109375 8.25 C20.94046875 8.85714844 20.94046875 8.85714844 20.24609375 9.4765625 C18.44381793 11.44346929 17.62892411 13.1642142 16.62109375 15.625 C15.57339936 18.1656589 14.5914898 20.29221967 13.0078125 22.55078125 C11.19636708 26.07672149 11.28955718 29.2030585 11.43359375 33.0625 C11.44712891 33.75537109 11.46066406 34.44824219 11.47460938 35.16210938 C11.5097053 36.85841265 11.56350432 38.55431136 11.62109375 40.25 C10.63109375 40.25 9.64109375 40.25 8.62109375 40.25 C8.59393286 43.27089478 8.57417718 46.29154129 8.55859375 49.3125 C8.54602539 50.58383789 8.54602539 50.58383789 8.53320312 51.88085938 C8.51426369 56.7861722 8.7878303 61.41444755 9.62109375 66.25 C9.00234375 66.353125 8.38359375 66.45625 7.74609375 66.5625 C5.25582891 67.12525373 5.25582891 67.12525373 3.62109375 70.25 C2.30109375 69.92 0.98109375 69.59 -0.37890625 69.25 C-0.37890625 68.59 -0.37890625 67.93 -0.37890625 67.25 C-1.59578125 67.29125 -2.81265625 67.3325 -4.06640625 67.375 C-7.59784752 67.38754508 -10.17894191 66.84998217 -13.37890625 65.25 C-13.70890625 66.9 -14.03890625 68.55 -14.37890625 70.25 C-15.69890625 69.92 -17.01890625 69.59 -18.37890625 69.25 C-18.37890625 66.61 -18.37890625 63.97 -18.37890625 61.25 C-22.66890625 60.59 -26.95890625 59.93 -31.37890625 59.25 C-31.37890625 62.55 -31.37890625 65.85 -31.37890625 69.25 C-33.35890625 69.745 -33.35890625 69.745 -35.37890625 70.25 C-36.02486939 21.23630487 -36.02486939 21.23630487 -25.3828125 10.10546875 C-17.46468447 2.77386872 -10.54644772 1.10832948 0 0 Z " fill="#6CC4F8" transform="translate(77.37890625,0.75)"/>
<path d="M0 0 C-1.17929532 2.78742531 -2.5080894 4.59700505 -4.5 6.9375 C-13.36170024 17.79308279 -12.12949989 35.8652588 -12.5625 49.125 C-12.62727539 50.98898438 -12.62727539 50.98898438 -12.69335938 52.890625 C-12.79846455 55.92699671 -12.90061343 58.96343665 -13 62 C-14.32 61.67 -15.64 61.34 -17 61 C-17.495 62.485 -17.495 62.485 -18 64 C-22.29 64 -26.58 64 -31 64 C-31.33 62.35 -31.66 60.7 -32 59 C-34.18137797 57.97549761 -34.18137797 57.97549761 -37 57 C-44.66053733 52.42889748 -49.27972689 46.00523053 -53 38 C-55.85355734 26.58577064 -53.93315127 17.94632902 -48 8 C-47.29230469 6.68902344 -47.29230469 6.68902344 -46.5703125 5.3515625 C-42.94845468 -0.07221463 -36.23385869 -3.50929466 -30 -5 C-19.53281842 -6.90312392 -9.07611845 -6.05074563 0 0 Z " fill="#C2E4F9" transform="translate(55,7)"/>
<path d="M0 0 C0.99 0.33 1.98 0.66 3 1 C3 1.66 3 2.32 3 3 C3.5775 3.185625 4.155 3.37125 4.75 3.5625 C8.04040217 5.66470139 9.63169414 8.42894733 11 12 C11.45950723 15.49972721 11.38184559 18.91570157 11.25 22.4375 C11.23195313 23.35982422 11.21390625 24.28214844 11.1953125 25.23242188 C11.14853601 27.48938733 11.08301871 29.74412612 11 32 C12.98 32 14.96 32 17 32 C17.5625 33.9375 17.5625 33.9375 18 36 C17 37 17 37 14.93359375 37.09765625 C11.46679688 37.04882812 11.46679688 37.04882812 8 37 C8 39.97 8 42.94 8 46 C10.64 46 13.28 46 16 46 C16.33 47.65 16.66 49.3 17 51 C14.03 51 11.06 51 8 51 C7.67 54.63 7.34 58.26 7 62 C5.68 61.67 4.36 61.34 3 61 C3 58.36 3 55.72 3 53 C-1.29 52.34 -5.58 51.68 -10 51 C-10 54.3 -10 57.6 -10 61 C-11.98 61.495 -11.98 61.495 -14 62 C-14.57357325 18.4790264 -14.57357325 18.4790264 -7 9 C-6.484375 8.0925 -5.96875 7.185 -5.4375 6.25 C-3.88027555 3.8126052 -2.11172389 1.96608776 0 0 Z " fill="#5BBBF6" transform="translate(56,9)"/>
<path d="M0 0 C6.44570506 2.20995602 10.84270571 5.82593227 14.05859375 11.82421875 C16.47220148 19.96638921 16.29710649 30.80915465 14 39 C10 37 10 37 8.15625 35.9375 C5.67395203 34.85824001 3.94155007 34.79583676 1.25 34.875 C0.05117187 34.90207031 0.05117187 34.90207031 -1.171875 34.9296875 C-1.77515625 34.95289063 -2.3784375 34.97609375 -3 35 C-2.89171875 36.52367188 -2.89171875 36.52367188 -2.78125 38.078125 C-2.21251231 46.39933534 -1.85773836 54.65398389 -2 63 C-2.33 63 -2.66 63 -3 63 C-3 61.35 -3 59.7 -3 58 C-3.8971875 58.495 -3.8971875 58.495 -4.8125 59 C-7 60 -7 60 -10 60 C-9.67 59.05125 -9.34 58.1025 -9 57.125 C-7.2934132 51.01591392 -6.70148656 44.68390467 -9.875 39 C-11.83921677 36.04858559 -11.83921677 36.04858559 -14 34 C-13.72988285 31.13260251 -13.34405956 28.4443732 -12.8125 25.625 C-12.68552734 24.85671875 -12.55855469 24.0884375 -12.42773438 23.296875 C-11.66294716 19.06676007 -10.86263363 16.31822519 -8 13 C-7.20331752 11.05194762 -7.20331752 11.05194762 -6.625 9.0625 C-5.19021035 4.95762052 -3.26683546 2.82537121 0 0 Z " fill="#1D98E1" transform="translate(139,7)"/>
<path d="M0 0 C3.89560171 3.11648137 6.60399582 6.29243656 7.3359375 11.296875 C7.44962091 18.43619323 6.07984642 23.71483049 1.125 29 C-1.91448976 30.43034812 -3.67998477 30.60979872 -7 30 C-11.54894157 25.45105843 -13.14390824 22.0801418 -13.25 15.75 C-13.19481885 9.79043543 -11.98814509 6.08162489 -8.75 1.0625 C-5.73369958 -0.76882526 -3.42616627 -0.47257466 0 0 Z " fill="#103952" transform="translate(125,41)"/>
<path d="M0 0 C1.98 0.495 1.98 0.495 4 1 C3.98839844 2.01320312 3.97679688 3.02640625 3.96484375 4.0703125 C3.95545791 5.42187314 3.94635857 6.7734358 3.9375 8.125 C3.92912109 8.79015625 3.92074219 9.4553125 3.91210938 10.140625 C3.89217708 14.20681354 4.21109839 18.0120092 5 22 C6.61737483 17.37892907 7.85248597 12.7539867 9 8 C10.32 8 11.64 8 13 8 C13.99 12.62 14.98 17.24 16 22 C17.17426264 19.65147472 17.11508173 18.26225935 17.09765625 15.6484375 C17.09443359 14.79765625 17.09121094 13.946875 17.08789062 13.0703125 C17.07951172 12.18085937 17.07113281 11.29140625 17.0625 10.375 C17.05798828 9.4778125 17.05347656 8.580625 17.04882812 7.65625 C17.03702591 5.43743352 17.02056155 3.21874982 17 1 C18.32 1 19.64 1 21 1 C24.49833466 6.75622397 23.80815891 14.44705747 22.359375 20.81640625 C20.4974642 26.5025358 20.4974642 26.5025358 19 28 C17.33382885 28.04063832 15.66611905 28.042721 14 28 C12.5393715 25.35261084 12 24.10551666 12 21 C11.34 21 10.68 21 10 21 C9.855625 22.11375 9.71125 23.2275 9.5625 24.375 C9 28 9 28 8 30 C5.6875 29.875 5.6875 29.875 3 29 C0.18948367 24.48309876 -1.12403404 20.24180972 -1.1328125 14.9609375 C-1.13410156 14.21585938 -1.13539062 13.47078125 -1.13671875 12.703125 C-1.13285156 11.93484375 -1.12898438 11.1665625 -1.125 10.375 C-1.12886719 9.59898438 -1.13273437 8.82296875 -1.13671875 8.0234375 C-1.12670133 2.25340266 -1.12670133 2.25340266 0 0 Z " fill="#123C55" transform="translate(86,41)"/>
<path d="M0 0 C5.20613517 0.03321298 8.11564186 1.61564186 11.8125 5.3125 C12.42567388 10.58579537 10.97983542 13.15537226 7.8125 17.3125 C8.81435405 19.54740519 9.6236673 21.13819289 11.4375 22.8125 C12.8125 24.3125 12.8125 24.3125 12.8125 28.3125 C9.4621302 27.73485003 8.13016228 26.72673154 5.8125 24.3125 C3.71260348 23.13675289 3.71260348 23.13675289 1.8125 22.3125 C1.1525 24.9525 0.4925 27.5925 -0.1875 30.3125 C-1.1775 30.3125 -2.1675 30.3125 -3.1875 30.3125 C-3.49739007 26.20124113 -3.8003933 22.08953959 -4.09692383 17.97729492 C-4.19885447 16.57741492 -4.30269131 15.17767239 -4.40844727 13.77807617 C-4.55982338 11.7703883 -4.70385601 9.76215096 -4.84765625 7.75390625 C-4.93668213 6.54420166 -5.02570801 5.33449707 -5.11743164 4.08813477 C-5.1405542 3.17217529 -5.16367676 2.25621582 -5.1875 1.3125 C-3.63719882 -0.23780118 -2.15073999 0.06844901 0 0 Z " fill="#133C56" transform="translate(140.1875,40.6875)"/>
<path d="M0 0 C1.65322266 0.01740234 1.65322266 0.01740234 3.33984375 0.03515625 C4.99693359 0.04869141 4.99693359 0.04869141 6.6875 0.0625 C7.54214844 0.07410156 8.39679687 0.08570313 9.27734375 0.09765625 C9.83984375 2.03515625 9.83984375 2.03515625 10.27734375 4.09765625 C9.27734375 5.09765625 9.27734375 5.09765625 7.4296875 5.1953125 C5.37890625 5.16276042 3.328125 5.13020833 1.27734375 5.09765625 C1.27734375 7.73765625 1.27734375 10.37765625 1.27734375 13.09765625 C3.91734375 13.09765625 6.55734375 13.09765625 9.27734375 13.09765625 C9.83984375 15.03515625 9.83984375 15.03515625 10.27734375 17.09765625 C9.27734375 18.09765625 9.27734375 18.09765625 7.4296875 18.1953125 C5.37890625 18.16276042 3.328125 18.13020833 1.27734375 18.09765625 C1.27734375 20.40765625 1.27734375 22.71765625 1.27734375 25.09765625 C4.57734375 25.09765625 7.87734375 25.09765625 11.27734375 25.09765625 C10.94734375 26.74765625 10.61734375 28.39765625 10.27734375 30.09765625 C8.13157738 30.12451563 5.9857173 30.14398713 3.83984375 30.16015625 C2.64488281 30.17175781 1.44992188 30.18335937 0.21875 30.1953125 C-2.72265625 30.09765625 -2.72265625 30.09765625 -3.72265625 29.09765625 C-3.82259157 27.03710315 -3.85346531 24.97313035 -3.85546875 22.91015625 C-3.85675781 21.65460937 -3.85804687 20.3990625 -3.859375 19.10546875 C-3.85728027 18.44836914 -3.85518555 17.79126953 -3.85302734 17.11425781 C-3.84767859 15.1060429 -3.85297316 13.09805166 -3.859375 11.08984375 C-3.85808594 9.83429687 -3.85679688 8.57875 -3.85546875 7.28515625 C-3.85377686 5.54298828 -3.85377686 5.54298828 -3.85205078 3.765625 C-3.67641825 0.14428108 -3.63117979 0.13024318 0 0 Z " fill="#1D4056" transform="translate(26.72265625,40.90234375)"/>
<path d="M0 0 C0.99 0.33 1.98 0.66 3 1 C3.33 3.97 3.66 6.94 4 10 C4.39832031 9.3503125 4.79664063 8.700625 5.20703125 8.03125 C5.73683594 7.1959375 6.26664063 6.360625 6.8125 5.5 C7.33457031 4.6646875 7.85664063 3.829375 8.39453125 2.96875 C9.18923828 1.99421875 9.18923828 1.99421875 10 1 C10.99 1 11.98 1 13 1 C12.70068497 5.09063877 11.84025906 7.43027681 9.3125 10.5625 C7.95384832 12.27224371 7.95384832 12.27224371 7 14 C7.56612141 17.39672848 8.9018564 18.88453694 11.125 21.5 C13 24 13 24 13 29 C9.7 28.34 6.4 27.68 3 27 C2.67 27.99 2.34 28.98 2 30 C1.01 30 0.02 30 -1 30 C-1.02465746 25.8882744 -1.04283959 21.77657722 -1.05493164 17.66479492 C-1.0599708 16.26504772 -1.06680216 14.8653058 -1.07543945 13.46557617 C-1.0875232 11.45754223 -1.09269807 9.44947043 -1.09765625 7.44140625 C-1.10289307 6.23170166 -1.10812988 5.02199707 -1.11352539 3.77563477 C-1 1 -1 1 0 0 Z " fill="#10384F" transform="translate(158,41)"/>
<path d="M0 0 C1.09054688 0.02320313 2.18109375 0.04640625 3.3046875 0.0703125 C4.40039062 0.08835938 5.49609375 0.10640625 6.625 0.125 C7.46804687 0.14820313 8.31109375 0.17140625 9.1796875 0.1953125 C9.7421875 2.1328125 9.7421875 2.1328125 10.1796875 4.1953125 C9.1796875 5.1953125 9.1796875 5.1953125 7.11328125 5.29296875 C3.64648438 5.24414062 3.64648438 5.24414062 0.1796875 5.1953125 C0.1796875 8.1653125 0.1796875 11.1353125 0.1796875 14.1953125 C2.8196875 14.1953125 5.4596875 14.1953125 8.1796875 14.1953125 C8.5096875 15.8453125 8.8396875 17.4953125 9.1796875 19.1953125 C6.2096875 19.1953125 3.2396875 19.1953125 0.1796875 19.1953125 C-0.1503125 22.8253125 -0.4803125 26.4553125 -0.8203125 30.1953125 C-2.1403125 29.8653125 -3.4603125 29.5353125 -4.8203125 29.1953125 C-4.8781429 24.73703324 -4.91385105 20.2788497 -4.9453125 15.8203125 C-4.96207031 14.54929687 -4.97882812 13.27828125 -4.99609375 11.96875 C-5.00253906 10.75703125 -5.00898437 9.5453125 -5.015625 8.296875 C-5.03133545 6.61585693 -5.03133545 6.61585693 -5.04736328 4.90087891 C-4.72500426 1.05960716 -3.83163587 0.26534874 0 0 Z " fill="#18415A" transform="translate(63.8203125,40.8046875)"/>
<path d="M0 0 C1.50433594 0.01353516 1.50433594 0.01353516 3.0390625 0.02734375 C3.80992188 0.03894531 4.58078125 0.05054688 5.375 0.0625 C5.9375 2 5.9375 2 6.375 4.0625 C5.375 5.0625 5.375 5.0625 3.30859375 5.16015625 C-0.15820312 5.11132812 -0.15820312 5.11132812 -3.625 5.0625 C-3.625 8.0325 -3.625 11.0025 -3.625 14.0625 C-0.655 14.0625 2.315 14.0625 5.375 14.0625 C5.375 15.7125 5.375 17.3625 5.375 19.0625 C2.405 19.0625 -0.565 19.0625 -3.625 19.0625 C-3.625 22.3625 -3.625 25.6625 -3.625 29.0625 C-4.945 29.3925 -6.265 29.7225 -7.625 30.0625 C-7.625 20.4925 -7.625 10.9225 -7.625 1.0625 C-4.98041621 -0.25979189 -2.94738699 -0.03427194 0 0 Z " fill="#153A51" transform="translate(49.625,40.9375)"/>
<path d="M0 0 C2.375 0.3125 2.375 0.3125 5 1 C7.8277772 5.2416658 7.66437928 9.01715536 7 14 C5.91077993 16.41049138 4.72315725 17.95375076 3 20 C0.625 19.75 0.625 19.75 -2 19 C-4.81819769 14.70514393 -4.68809042 9.95265084 -4 5 C-2 1.875 -2 1.875 0 0 Z " fill="#27A5ED" transform="translate(120,46)"/>
<path d="M0 0 C1.98 0.495 1.98 0.495 4 1 C4 10.24 4 19.48 4 29 C2.68 29.33 1.36 29.66 0 30 C-1.83034055 28.16965945 -1.13042797 25.26788008 -1.1328125 22.8125 C-1.13410156 21.55695312 -1.13539062 20.30140625 -1.13671875 19.0078125 C-1.13462402 18.35071289 -1.1325293 17.69361328 -1.13037109 17.01660156 C-1.12502234 15.00838665 -1.13031691 13.00039541 -1.13671875 10.9921875 C-1.13542969 9.73664062 -1.13414063 8.48109375 -1.1328125 7.1875 C-1.13112061 5.44533203 -1.13112061 5.44533203 -1.12939453 3.66796875 C-1 1 -1 1 0 0 Z " fill="#1A425B" transform="translate(78,41)"/>
<path d="M0 0 C5 5 5 5 5.48828125 8.11328125 C5.43027344 9.16902344 5.37226563 10.22476563 5.3125 11.3125 C5.26738281 12.38113281 5.22226563 13.44976562 5.17578125 14.55078125 C5.11777344 15.35902344 5.05976563 16.16726562 5 17 C4.67 17 4.34 17 4 17 C4 15.35 4 13.7 4 12 C3.401875 12.33 2.80375 12.66 2.1875 13 C0 14 0 14 -3 14 C-2.01 9.38 -1.02 4.76 0 0 Z " fill="#2FA0E0" transform="translate(132,53)"/>
<path d="M0 0 C2.97 0.495 2.97 0.495 6 1 C6.8125 2.6875 6.8125 2.6875 7 5 C4.6875 7.75 4.6875 7.75 2 10 C1.34 10 0.68 10 0 10 C0 6.7 0 3.4 0 0 Z " fill="#1C96DE" transform="translate(141,46)"/>
<path d="M0 0 C2.70867894 3.41687801 3.74445466 5.57054751 4 10 C3.50418112 12.74683661 2.78743341 15.31346249 2 18 C0 16 0 16 -0.1953125 12.3046875 C-0.182009 10.82799892 -0.15814835 9.35137642 -0.125 7.875 C-0.11146484 6.74384766 -0.11146484 6.74384766 -0.09765625 5.58984375 C-0.0740687 3.72642746 -0.03819719 1.86317407 0 0 Z " fill="#60B8EC" transform="translate(90,47)"/>
<path d="M0 0 C3.3 0 6.6 0 10 0 C6.98112756 3.48331435 4.43090471 4.79157144 0 6 C0 4.02 0 2.04 0 0 Z " fill="#C2E5FA" transform="translate(46,60)"/>
<path d="M0 0 C4.875 4.625 4.875 4.625 6 8 C4.02 8 2.04 8 0 8 C0 5.36 0 2.72 0 0 Z " fill="#349FDD" transform="translate(161,60)"/>
<path d="M0 0 C2.01136276 2.55991624 3.62845496 5.04590299 5 8 C3.35 8 1.7 8 0 8 C0 5.36 0 2.72 0 0 Z " fill="#AFDEFA" transform="translate(46,47)"/>
<path d="M0 0 C0.33 0.66 0.66 1.32 1 2 C0.06553465 4.03144641 -0.93224776 6.03533587 -2 8 C-2.99 8 -3.98 8 -5 8 C-3.35 5.36 -1.7 2.72 0 0 Z " fill="#94D3F8" transform="translate(50,13)"/>
<path d="M0 0 C0.33 0.66 0.66 1.32 1 2 C0.22265625 3.9453125 0.22265625 3.9453125 -0.9375 6.125 C-1.31777344 6.84945313 -1.69804688 7.57390625 -2.08984375 8.3203125 C-2.39019531 8.87460937 -2.69054687 9.42890625 -3 10 C-3.66 9.34 -4.32 8.68 -5 8 C-3.35 5.36 -1.7 2.72 0 0 Z " fill="#E6F4FD" transform="translate(7,13)"/>
<path d="M0 0 C0.33 0 0.66 0 1 0 C0.67 2.64 0.34 5.28 0 8 C-0.66 7.67 -1.32 7.34 -2 7 C-2.125 4.625 -2.125 4.625 -2 2 C-1.34 1.34 -0.68 0.68 0 0 Z " fill="#37A3E1" transform="translate(103,56)"/>
</svg>
